{"glyphs":{":":{"x_min":0,"x_max":280,"ha":280,"o":"m 140 95 q 162 95 177 79 q 193 63 193 41 q 193 20 177 4 q 161 -12 140 -12 q 118 -12 102 4 q 86 20 86 42 q 86 63 102 79 q 117 94 140 95 z m 140 558 q 162 558 177 542 q 193 527 193 504 q 193 483 177 467 q 161 452 140 452 q 118 452 102 468 q 86 483 86 505 q 86 527 102 542 q 117 558 140 558 z"},"$":{"x_min":0,"x_max":720,"ha":720,"o":"m 392 603 l 392 376 l 427 373 q 501 364 531 357 q 562 351 586 338 q 660 297 660 202 q 660 111 588 56 q 516 1 392 -1 l 392 -62 q 392 -77 398 -85 q 405 -93 423 -98 l 423 -113 l 304 -113 l 304 -98 q 322 -93 329 -85 q 335 -77 335 -62 l 335 0 q 235 7 145 52 q 100 75 92 75 q 86 75 72 58 l 60 66 l 125 184 l 137 177 q 129 159 129 153 q 129 134 211 99 q 274 71 335 65 l 335 307 q 238 319 193 336 q 141 356 116 394 q 92 431 92 476 q 92 556 156 606 q 220 657 335 667 l 335 729 q 335 744 329 751 q 322 759 304 764 l 304 780 l 423 780 l 423 764 q 405 759 398 751 q 392 744 392 729 l 392 668 q 494 664 594 622 q 609 616 612 616 q 620 616 633 634 l 646 628 l 583 508 l 571 515 q 578 534 578 539 q 578 555 513 578 q 460 597 392 603 z m 335 603 q 282 598 245 581 q 167 545 167 480 q 167 416 248 396 q 265 391 335 383 z m 392 63 q 477 67 522 95 q 585 135 585 196 q 585 258 521 281 q 498 289 392 300 z"},"?":{"x_min":0,"x_max":513,"ha":513,"o":"m 313 190 l 195 190 l 195 204 q 212 205 217 210 q 223 216 224 234 q 226 288 245 326 q 255 348 265 361 q 275 375 327 437 q 363 480 363 518 q 363 553 344 577 q 312 618 255 618 q 196 618 150 575 q 125 551 125 531 q 125 524 135 509 l 124 499 l 33 596 l 44 606 q 52 602 57 599 q 63 595 66 595 q 71 595 83 604 q 170 678 265 678 q 345 678 396 629 q 440 585 440 521 q 440 474 412 436 q 398 416 346 363 q 319 336 302 298 q 286 261 286 228 q 286 215 291 211 q 296 206 313 204 z m 257 93 q 280 93 295 78 q 310 62 310 40 q 310 19 294 4 q 279 -12 257 -12 q 236 -12 220 4 q 205 20 205 41 q 205 62 220 78 q 235 93 257 93 z"},"<":{"x_min":0,"x_max":500,"ha":500,"o":"m 466 570 l 466 495 l 114 333 l 466 172 l 466 97 l 33 301 l 33 366 z"},"'":{"x_min":0,"x_max":261,"ha":261,"o":"m 173 412 l 88 412 l 88 425 q 94 426 96 426 q 115 428 115 436 q 115 438 114 441 l 89 634 q 88 646 84 649 q 80 651 60 653 l 60 667 l 201 667 l 201 653 q 195 652 193 652 q 180 651 177 648 q 173 646 172 634 l 147 441 q 146 433 150 430 q 153 428 173 425 z"},"=":{"x_min":0,"x_max":767,"ha":767,"o":"m 116 370 l 116 496 l 133 496 q 144 478 159 471 q 175 465 207 465 l 559 465 q 591 465 607 472 q 623 479 633 496 l 651 496 l 651 370 l 633 370 q 623 388 607 395 q 591 401 560 401 l 207 401 q 175 401 159 395 q 144 388 132 370 z m 116 170 l 116 296 l 133 296 q 144 278 159 272 q 175 265 207 265 l 559 265 q 591 265 607 272 q 624 279 633 296 l 651 296 l 651 170 l 633 170 q 623 188 607 195 q 591 202 560 202 l 207 202 q 175 202 159 195 q 143 188 132 170 z"},"a":{"x_min":0,"x_max":619,"ha":619,"o":"m 448 154 l 161 154 l 120 62 q 112 45 112 37 q 112 20 137 13 l 137 0 l 2 0 l 2 13 q 22 17 33 29 q 44 41 59 74 l 240 468 q 255 500 255 513 q 255 530 231 534 l 231 547 l 390 547 l 390 534 q 365 528 365 513 q 365 503 385 460 l 559 82 q 576 44 589 30 q 602 16 621 13 l 621 0 l 479 0 l 479 13 q 501 18 501 30 q 501 36 490 62 z m 425 207 l 305 475 l 185 207 z"},"L":{"x_min":0,"x_max":678,"ha":678,"o":"m 181 63 l 607 63 q 627 63 636 70 q 645 76 649 95 l 665 95 l 665 -31 l 649 -31 q 645 -13 636 -6 q 627 0 607 0 l 73 0 l 73 16 q 92 21 98 29 q 104 37 104 58 l 104 609 q 104 629 98 638 q 92 646 73 651 l 73 667 l 212 667 l 212 651 q 194 646 188 638 q 181 629 181 609 z"},"3":{"x_min":0,"x_max":720,"ha":720,"o":"m 145 472 l 56 572 l 67 583 q 83 571 91 571 q 96 571 126 592 q 188 638 246 658 q 303 678 370 678 q 483 678 557 622 q 588 598 606 564 q 624 531 624 495 q 624 399 513 360 q 567 347 599 320 q 653 273 653 198 q 653 106 578 49 q 496 -12 366 -12 q 296 -12 233 6 q 170 23 100 62 q 88 69 84 69 q 75 69 60 54 l 47 62 l 118 181 l 131 173 q 126 160 126 154 q 126 144 142 130 q 182 95 243 75 q 303 55 371 55 q 474 55 531 102 q 552 119 564 145 q 577 171 577 198 q 577 254 534 288 q 487 325 388 325 l 326 325 q 305 325 297 319 q 288 312 284 294 l 268 294 l 268 420 l 284 420 q 288 401 297 395 q 305 389 326 389 l 377 389 q 428 389 456 395 q 484 400 507 416 q 547 443 547 491 q 547 539 504 571 q 450 612 363 612 q 260 612 182 548 q 147 520 147 504 q 147 499 156 482 z"},";":{"x_min":0,"x_max":280,"ha":280,"o":"m 105 -113 l 90 -96 q 123 -76 137 -57 q 152 -38 157 -9 q 144 -12 136 -12 q 114 -12 100 3 q 86 17 86 41 q 86 64 101 80 q 115 95 138 95 q 163 95 178 74 q 193 53 193 18 q 193 -25 173 -56 q 152 -87 105 -113 z m 140 558 q 162 558 177 542 q 193 527 193 504 q 193 483 177 467 q 161 452 140 452 q 118 452 102 468 q 86 483 86 505 q 86 527 102 542 q 117 558 140 558 z"},"J":{"x_min":0,"x_max":582,"ha":582,"o":"m 3 30 l 61 154 l 75 147 q 70 131 70 125 q 70 111 108 91 q 180 55 257 55 q 316 55 356 77 q 396 99 408 139 q 414 161 414 248 l 414 609 q 414 629 408 638 q 401 646 383 651 l 383 667 l 522 667 l 522 651 q 503 646 497 637 q 491 629 491 609 l 491 230 q 491 167 487 140 q 483 114 469 88 q 442 38 379 11 q 326 -12 257 -12 q 206 -12 170 -3 q 133 5 63 34 q 47 41 41 41 q 33 41 18 23 z"},"V":{"x_min":0,"x_max":716,"ha":716,"o":"m 361 87 l 577 581 q 590 611 590 625 q 590 644 562 651 l 562 667 l 713 667 l 713 651 q 690 644 681 633 q 673 622 649 568 l 435 83 q 422 55 422 42 q 422 21 450 16 l 450 0 l 265 0 l 265 16 q 292 21 292 43 q 292 55 280 83 l 61 583 q 43 623 34 634 q 25 645 3 651 l 3 667 l 163 667 l 163 651 q 134 644 134 625 q 134 609 146 581 z"},"\"":{"x_min":0,"x_max":522,"ha":522,"o":"m 173 412 l 88 412 l 88 425 q 94 426 96 426 q 115 428 115 436 q 115 438 114 441 l 89 634 q 88 646 84 649 q 80 651 60 653 l 60 667 l 201 667 l 201 653 q 195 652 193 652 q 180 651 177 648 q 173 646 172 634 l 147 441 q 146 433 150 430 q 153 428 173 425 z m 434 412 l 350 412 l 350 425 q 355 426 357 426 q 376 428 376 436 q 376 437 375 441 l 351 634 q 349 646 345 649 q 341 651 321 653 l 321 667 l 462 667 l 462 653 q 456 652 454 652 q 441 651 438 648 q 435 646 433 634 l 408 441 q 407 433 411 430 q 415 428 434 425 z"},"7":{"x_min":0,"x_max":720,"ha":720,"o":"m 552 600 l 103 600 q 83 600 74 594 q 65 587 61 569 l 45 569 l 45 698 l 61 698 q 65 679 74 673 q 83 667 103 667 l 577 667 q 598 667 606 673 q 615 679 619 698 l 635 698 l 635 607 l 319 45 q 313 35 313 29 q 313 18 343 17 l 343 0 l 193 0 l 193 17 q 211 19 220 24 q 229 29 236 41 z"},"S":{"x_min":0,"x_max":748,"ha":748,"o":"m 699 625 l 629 500 l 615 507 q 624 529 624 534 q 624 549 587 566 q 489 612 379 612 q 289 612 222 578 q 190 562 171 535 q 152 509 152 479 q 152 455 167 433 q 182 412 206 401 q 232 389 268 384 q 304 379 385 377 q 497 374 545 366 q 594 359 625 342 q 708 295 708 201 q 708 110 633 53 q 549 -12 403 -12 q 318 -12 255 5 q 192 22 105 68 q 81 80 76 80 q 69 80 53 62 l 40 70 l 113 193 l 127 185 q 118 166 118 159 q 118 143 180 110 q 236 81 288 68 q 340 55 401 55 q 525 55 589 109 q 631 146 631 195 q 631 261 559 286 q 535 294 510 296 q 485 298 367 303 q 283 306 236 315 q 188 325 151 346 q 116 365 96 400 q 76 436 76 477 q 76 548 128 599 q 167 636 236 657 q 305 678 387 678 q 454 678 511 665 q 569 652 641 620 q 657 613 661 613 q 670 613 685 632 z"},"}":{"x_min":0,"x_max":317,"ha":317,"o":"m 317 271 l 305 271 q 301 289 296 295 q 290 302 279 302 l 249 302 q 229 302 224 287 q 219 272 218 218 l 218 -4 q 218 -33 191 -56 q 163 -80 130 -80 l 55 -80 q 35 -80 26 -86 q 18 -93 13 -111 l 0 -111 l 0 5 l 13 5 q 18 -14 26 -21 q 35 -27 55 -27 l 95 -27 q 150 -21 148 43 l 148 264 q 148 286 157 301 q 165 315 188 333 q 165 353 156 367 q 148 381 148 403 l 148 553 q 148 624 146 643 q 145 661 136 672 q 120 693 95 693 l 55 693 q 35 693 26 687 q 18 681 13 662 l 0 662 l 0 778 l 13 778 q 18 759 26 753 q 35 747 55 747 l 130 747 q 160 747 187 726 q 218 702 218 671 l 218 449 q 219 395 224 380 q 229 365 249 365 l 279 365 q 290 365 296 372 q 301 378 305 396 l 317 396 z"},"Z":{"x_min":0,"x_max":646,"ha":646,"o":"m 617 667 l 617 653 l 159 63 l 562 63 q 583 63 592 70 q 600 76 604 95 l 620 95 l 620 -31 l 604 -31 q 600 -13 592 -6 q 583 0 562 0 l 27 0 l 27 14 l 486 603 l 90 603 q 69 603 61 597 q 52 590 48 572 l 32 572 l 32 698 l 48 698 q 52 679 61 673 q 69 667 90 667 z"},"x":{"x_min":0,"x_max":565,"ha":565,"o":"m 321 294 l 491 72 q 518 37 531 26 q 544 16 562 13 l 562 0 l 409 0 l 409 13 q 433 16 433 29 q 433 37 417 59 l 278 241 l 137 59 q 124 41 124 30 q 124 18 146 13 l 146 0 l 2 0 l 2 13 q 22 18 37 30 q 51 41 76 72 l 246 286 l 100 474 q 73 509 62 519 q 50 529 31 534 l 31 547 l 187 547 l 187 534 q 165 528 165 512 q 165 500 176 485 l 286 340 l 402 488 q 414 503 414 513 q 414 530 391 534 l 391 547 l 530 547 l 530 534 q 509 526 498 516 q 486 506 460 473 z"},")":{"x_min":0,"x_max":317,"ha":317,"o":"m 26 747 q 250 570 250 333 q 250 96 26 -80 l 0 -51 q 55 -8 104 79 q 172 197 172 333 q 172 477 95 604 q 48 679 0 718 z"},"&":{"x_min":0,"x_max":746,"ha":746,"o":"m 719 431 l 719 312 l 706 312 q 705 336 694 336 q 674 336 639 294 q 614 263 572 186 q 599 122 635 96 q 665 74 689 74 q 698 74 700 77 q 703 81 706 99 l 719 99 l 719 0 q 640 1 595 28 q 549 55 524 115 q 447 -12 289 -12 q 175 -12 108 53 q 45 113 45 195 q 45 238 66 277 q 86 316 123 343 q 157 369 217 387 q 132 430 132 511 q 132 587 191 634 q 245 678 332 678 q 435 678 491 620 q 535 574 535 510 q 535 462 508 427 q 481 391 430 372 q 509 335 539 252 q 610 417 719 431 z m 329 618 q 278 618 245 595 q 205 566 205 513 q 205 466 241 438 q 281 407 340 407 q 396 407 430 437 q 462 465 462 507 q 462 551 432 581 q 394 618 329 618 z m 297 343 q 220 343 167 297 q 122 260 122 201 q 122 143 160 105 q 210 55 293 55 q 372 55 433 108 q 480 149 480 188 q 480 211 465 241 q 449 272 426 294 q 376 342 297 343 z"},"_":{"x_min":0,"x_max":500,"ha":500,"o":"m 0 -72 l 500 -72 l 500 -122 l 0 -122 z"},"v":{"x_min":0,"x_max":601,"ha":601,"o":"m 309 78 l 484 479 q 491 495 491 506 q 491 529 462 534 l 462 547 l 598 547 l 598 534 q 577 528 568 516 q 558 504 539 461 l 372 81 q 360 54 360 40 q 360 19 388 13 l 388 0 l 219 0 l 219 13 q 246 19 246 41 q 246 54 234 81 l 62 461 q 42 505 33 517 q 23 528 2 534 l 2 547 l 154 547 l 154 534 q 125 529 125 507 q 125 495 132 479 z"},"O":{"x_min":0,"x_max":911,"ha":911,"o":"m 454 678 q 630 678 738 586 q 799 535 829 460 q 854 399 854 329 q 854 234 800 151 q 740 59 634 19 q 555 -12 455 -12 q 280 -12 172 81 q 112 132 82 206 q 57 267 57 333 q 57 433 110 516 q 169 606 276 648 q 352 677 454 678 z m 454 611 q 304 611 217 527 q 137 450 137 333 q 137 216 217 139 q 304 55 455 55 q 607 55 694 139 q 774 216 774 330 q 774 452 694 527 q 646 572 592 590 q 531 611 454 611 z"},"(":{"x_min":0,"x_max":317,"ha":317,"o":"m 291 747 l 317 718 q 263 674 213 587 q 145 469 145 333 q 145 189 222 63 q 268 -13 317 -51 l 291 -80 q 67 96 67 333 q 67 570 291 747 z"},"C":{"x_min":0,"x_max":847,"ha":847,"o":"m 776 609 l 704 488 l 690 496 q 695 511 695 519 q 695 539 632 569 q 546 611 445 611 q 308 611 223 536 q 137 458 137 336 q 137 214 227 133 q 313 55 441 55 q 565 55 661 127 q 704 160 704 174 q 704 181 695 196 l 707 206 l 794 100 l 782 90 q 768 103 759 103 q 754 103 741 92 q 696 59 666 42 q 637 25 602 13 q 529 -12 441 -12 q 273 -12 167 82 q 57 180 57 333 q 57 453 126 541 q 234 678 451 678 q 594 678 728 603 q 736 598 740 598 q 746 598 763 616 z"},"W":{"x_min":0,"x_max":1059,"ha":1059,"o":"m 532 566 l 363 80 q 354 51 354 40 q 354 23 381 16 l 381 0 l 220 0 l 220 16 q 248 21 248 40 q 248 50 237 80 l 59 570 q 40 621 30 634 q 20 646 -3 651 l -3 667 l 153 667 l 153 651 q 124 647 124 626 q 124 618 137 581 l 303 110 l 467 581 q 481 622 481 628 q 481 646 454 651 l 454 667 l 624 667 l 624 651 q 596 644 596 626 q 596 619 609 581 l 771 110 l 931 581 q 942 616 942 627 q 942 646 915 651 l 915 667 l 1062 667 l 1062 651 q 1038 646 1027 632 q 1016 618 1000 570 l 830 80 q 820 51 820 42 q 820 22 848 16 l 848 0 l 688 0 l 688 16 q 716 22 716 42 q 716 49 707 76 z"},"A":{"x_min":0,"x_max":737,"ha":737,"o":"m 546 187 l 189 187 l 131 61 q 123 42 123 35 q 123 21 151 16 l 151 0 l 3 0 l 3 16 q 23 19 33 30 q 44 42 61 79 l 305 606 q 314 625 314 632 q 314 645 290 651 l 290 667 l 452 667 l 452 651 q 428 643 428 630 q 428 625 437 606 l 671 98 q 697 42 705 32 q 713 22 741 16 l 741 0 l 583 0 l 583 16 q 611 20 611 37 q 611 45 601 67 z m 518 250 l 368 580 l 218 250 z"},"f":{"x_min":0,"x_max":590,"ha":590,"o":"m 160 256 l 160 55 q 160 35 166 27 q 172 18 191 13 l 191 0 l 59 0 l 59 13 q 77 18 83 27 q 90 35 90 55 l 90 492 q 90 512 83 521 q 77 529 59 534 l 59 547 l 503 547 q 523 547 531 553 q 540 560 545 578 l 558 578 l 558 462 l 545 462 q 540 481 531 487 q 523 494 503 494 l 160 494 l 160 310 l 383 310 q 403 310 412 316 q 420 322 425 341 l 438 341 l 438 225 l 425 225 q 420 244 412 250 q 403 256 383 256 z"},"Q":{"x_min":0,"x_max":911,"ha":911,"o":"m 626 16 q 545 -12 454 -12 q 280 -12 172 81 q 112 132 82 206 q 57 267 57 333 q 57 433 111 516 q 171 607 276 648 q 355 678 456 678 q 631 678 738 586 q 799 534 829 460 q 854 400 854 333 q 854 245 812 170 q 770 95 694 48 l 764 -4 q 772 -11 780 -11 q 786 -11 803 5 l 815 -5 l 729 -113 l 717 -100 q 728 -82 728 -75 q 728 -65 719 -58 z m 561 67 l 535 86 q 517 101 494 110 q 472 120 457 120 q 435 120 413 105 l 404 118 q 450 148 499 148 q 562 148 633 94 q 774 176 774 333 q 774 450 694 527 q 607 611 456 611 q 304 611 217 527 q 137 450 137 333 q 137 216 217 139 q 304 55 453 55 q 506 55 561 67 z"},"w":{"x_min":0,"x_max":890,"ha":890,"o":"m 445 449 l 312 76 q 302 49 302 42 q 302 21 331 13 l 331 0 l 178 0 l 178 13 q 205 18 205 39 q 205 52 196 76 l 46 480 q 37 508 28 518 q 19 527 -2 534 l -2 547 l 141 547 l 141 534 q 113 527 113 507 q 113 501 120 480 l 260 94 l 396 480 q 403 500 403 507 q 403 526 377 534 l 377 547 l 524 547 l 524 534 q 496 526 496 508 q 496 498 502 480 l 642 89 l 778 480 q 783 494 783 504 q 783 527 752 534 l 752 547 l 893 547 l 893 534 q 872 529 861 517 q 849 506 840 480 l 693 68 q 687 50 687 40 q 687 16 714 13 l 714 0 l 563 0 l 563 13 q 589 18 589 39 q 589 50 580 76 z"},"-":{"x_min":0,"x_max":199,"ha":199,"o":"m 199 336 l 199 210 l 187 210 q 183 229 178 235 q 172 242 161 242 l 37 242 q 26 242 21 235 q 15 229 11 210 l 0 210 l 0 336 l 11 336 q 15 318 21 312 q 26 305 37 305 l 161 305 q 172 305 178 312 q 184 319 187 336 z"},"E":{"x_min":0,"x_max":720,"ha":720,"o":"m 181 311 l 181 63 l 608 63 q 629 63 637 70 q 646 76 650 95 l 666 95 l 666 -31 l 651 -31 q 646 -13 637 -6 q 629 0 608 0 l 73 0 l 73 16 q 92 21 98 29 q 104 37 104 58 l 104 609 q 104 629 98 638 q 92 646 73 651 l 73 667 l 602 667 q 623 667 631 673 q 639 679 644 698 l 660 698 l 660 572 l 644 572 q 640 590 631 597 q 623 603 602 603 l 181 603 l 181 375 l 457 375 q 478 375 486 381 q 495 387 499 406 l 515 406 l 515 280 l 499 280 q 495 298 486 305 q 478 311 457 311 z"},"s":{"x_min":0,"x_max":619,"ha":619,"o":"m 579 519 l 525 412 l 513 418 q 516 432 516 438 q 516 449 484 466 q 417 502 320 502 q 242 502 188 473 q 134 444 134 392 q 134 368 147 349 q 161 331 184 323 q 207 315 234 312 q 261 310 349 307 q 423 304 461 297 q 499 291 525 275 q 554 259 571 229 q 587 198 587 162 q 587 86 525 42 q 451 -12 328 -12 q 268 -12 201 7 q 134 25 77 58 q 69 62 65 62 q 58 62 43 45 l 32 53 l 94 157 l 106 150 q 104 144 104 142 q 102 134 102 129 q 102 116 151 89 q 235 45 326 45 q 408 45 463 73 q 489 87 505 110 q 521 133 521 159 q 521 182 507 201 q 494 219 473 227 q 453 234 428 237 q 403 240 335 242 q 254 246 220 250 q 185 255 154 266 q 115 280 91 312 q 67 345 67 389 q 67 468 139 513 q 211 559 324 559 q 426 559 530 513 q 545 506 548 506 q 556 506 566 524 z"},">":{"x_min":0,"x_max":500,"ha":500,"o":"m 34 570 l 467 366 l 467 301 l 34 97 l 34 172 l 386 333 l 34 495 z"},"l":{"x_min":0,"x_max":560,"ha":560,"o":"m 160 53 l 493 53 q 514 53 522 60 q 531 66 536 85 l 549 85 l 549 -31 l 536 -31 q 531 -13 522 -6 q 514 0 493 0 l 59 0 l 59 13 q 77 18 83 27 q 90 35 90 55 l 90 492 q 90 512 83 521 q 77 529 59 534 l 59 547 l 191 547 l 191 534 q 172 529 166 521 q 160 512 160 492 z"},"8":{"x_min":0,"x_max":720,"ha":720,"o":"m 188 356 q 143 372 118 396 q 74 438 74 499 q 74 557 115 601 q 187 678 360 678 q 486 678 563 634 q 604 610 626 572 q 646 539 646 499 q 646 448 617 412 q 588 376 532 356 q 575 342 602 320 q 667 269 667 192 q 667 141 634 93 q 563 -12 360 -12 q 206 -12 123 53 q 91 78 72 115 q 53 153 53 192 q 53 249 88 292 q 124 335 188 356 z m 358 611 q 255 611 197 577 q 147 548 147 498 q 147 449 197 419 q 255 385 360 385 q 464 385 523 419 q 573 448 573 497 q 573 551 517 581 q 460 611 358 611 z m 358 325 q 247 325 184 284 q 130 250 130 190 q 130 131 184 96 q 247 55 360 55 q 473 55 536 96 q 561 112 575 137 q 590 162 590 188 q 590 250 536 284 q 474 325 358 325 z"},"\\":{"x_min":0,"x_max":713,"ha":713,"o":"m 197 667 l 197 653 q 173 649 173 636 q 173 628 200 592 l 587 74 q 633 16 667 14 l 667 0 l 513 0 l 513 14 q 536 18 536 30 q 536 38 509 74 l 126 593 q 81 651 47 653 l 47 667 z"},"e":{"x_min":0,"x_max":596,"ha":596,"o":"m 160 256 l 160 53 l 498 53 q 518 53 527 60 q 535 66 540 85 l 553 85 l 553 -31 l 540 -31 q 535 -13 527 -6 q 519 0 498 0 l 59 0 l 59 13 q 78 18 84 27 q 90 35 90 55 l 90 492 q 90 512 83 521 q 77 529 59 534 l 59 547 l 495 547 q 515 547 523 553 q 532 560 537 578 l 550 578 l 550 462 l 537 462 q 532 481 523 487 q 515 494 495 494 l 160 494 l 160 309 l 373 309 q 394 309 402 315 q 410 322 415 340 l 428 340 l 428 224 l 415 224 q 410 243 402 250 q 393 256 373 256 z"},"b":{"x_min":0,"x_max":647,"ha":647,"o":"m 508 287 q 604 248 604 152 q 604 83 555 42 q 528 19 492 9 q 457 0 397 0 l 59 0 l 59 13 q 77 18 83 27 q 90 35 90 55 l 90 492 q 90 512 83 521 q 77 529 59 534 l 59 547 l 387 547 q 438 547 470 540 q 501 534 525 518 q 553 500 570 468 q 586 437 586 401 q 586 326 508 287 z m 160 312 l 367 312 q 417 312 440 316 q 463 320 481 331 q 519 352 519 398 q 519 451 476 476 q 457 486 433 490 q 409 494 361 494 l 160 494 z m 160 53 l 377 53 q 429 53 454 57 q 478 62 498 74 q 537 99 537 151 q 537 210 491 238 q 472 250 447 255 q 421 259 371 259 l 160 259 z"},"%":{"x_min":0,"x_max":899,"ha":899,"o":"m 206 672 q 274 672 323 628 q 380 578 380 497 q 380 461 365 427 q 350 393 323 370 q 274 326 207 326 q 139 326 90 370 q 33 420 33 499 q 33 536 48 571 q 63 605 90 628 q 139 671 206 672 z m 206 633 q 155 633 120 596 q 83 558 83 499 q 83 441 118 403 q 153 365 207 365 q 259 365 293 402 q 330 440 330 497 q 330 557 296 595 q 261 632 206 633 z m 277 14 l 277 0 l 140 0 l 140 14 q 173 16 221 74 l 622 592 q 649 628 649 637 q 649 649 626 653 l 626 667 l 759 667 l 759 653 q 726 651 678 593 l 282 74 q 253 37 253 30 q 253 18 277 14 z m 692 341 q 760 341 809 297 q 866 246 866 165 q 866 130 851 96 q 835 62 809 38 q 760 -6 692 -6 q 625 -6 576 38 q 519 89 519 167 q 519 205 534 239 q 550 274 576 297 q 625 340 692 341 z m 692 301 q 641 301 605 265 q 569 227 569 167 q 569 109 604 72 q 639 34 692 34 q 745 34 779 70 q 816 108 816 166 q 816 226 781 263 q 747 301 692 301 z"},"m":{"x_min":0,"x_max":773,"ha":773,"o":"m 380 0 l 148 461 l 148 55 q 148 35 154 27 q 161 18 179 13 l 179 0 l 59 0 l 59 13 q 77 18 83 27 q 90 35 90 55 l 90 492 q 90 512 83 521 q 77 529 59 534 l 59 547 l 225 547 l 225 534 q 200 526 200 512 q 200 506 212 481 l 385 132 l 559 481 q 571 505 571 512 q 571 526 546 534 l 546 547 l 714 547 l 714 534 q 695 529 689 520 q 683 512 683 492 l 683 55 q 683 35 689 27 q 695 18 714 13 l 714 0 l 582 0 l 582 13 q 600 18 606 27 q 613 35 613 55 l 613 461 z"},"#":{"x_min":0,"x_max":767,"ha":767,"o":"m 186 168 l 99 168 q 83 168 74 162 q 65 155 57 137 l 41 137 l 65 263 l 81 263 q 83 246 89 239 q 96 232 111 232 l 198 232 l 238 435 l 151 435 q 135 435 126 428 q 117 421 108 404 l 92 404 l 117 530 l 133 530 q 134 512 141 505 q 147 499 163 499 l 250 499 l 272 613 q 273 616 273 621 q 273 633 268 638 q 263 644 248 648 l 251 667 l 377 667 l 374 648 q 355 643 347 635 q 339 628 336 613 l 313 499 l 517 499 l 539 613 q 540 616 540 621 q 540 633 535 638 q 530 644 515 648 l 519 667 l 644 667 l 641 648 q 622 643 614 635 q 605 628 603 613 l 580 499 l 667 499 q 683 499 692 505 q 702 512 710 530 l 726 530 l 701 404 l 685 404 q 684 421 677 428 q 670 435 655 435 l 568 435 l 528 232 l 615 232 q 631 232 640 239 q 649 246 658 263 l 674 263 l 649 137 l 633 137 q 632 155 625 162 q 619 168 603 168 l 516 168 l 494 53 q 493 50 493 44 q 493 33 498 28 q 503 22 518 18 l 515 0 l 389 0 l 392 18 q 411 23 419 31 q 427 38 430 53 l 453 168 l 250 168 l 227 53 q 227 50 227 44 q 227 33 231 28 q 236 22 251 18 l 248 0 l 122 0 l 125 18 q 144 23 152 31 q 161 38 164 53 z m 262 232 l 465 232 l 504 435 l 301 435 z"},",":{"x_min":0,"x_max":280,"ha":280,"o":"m 105 -113 l 90 -96 q 123 -76 137 -57 q 152 -38 157 -9 q 144 -12 136 -12 q 114 -12 100 3 q 86 17 86 41 q 86 64 101 80 q 115 95 138 95 q 163 95 178 74 q 193 53 193 18 q 193 -25 173 -56 q 152 -87 105 -113 z"},"n":{"x_min":0,"x_max":700,"ha":700,"o":"m 148 461 l 148 55 q 148 35 154 27 q 160 18 179 13 l 179 0 l 59 0 l 59 13 q 78 18 84 27 q 90 35 90 55 l 90 492 q 90 512 83 521 q 77 529 59 534 l 59 547 l 236 547 l 236 534 q 211 525 211 508 q 211 494 229 473 l 552 112 l 552 492 q 552 512 546 521 q 540 529 521 534 l 521 547 l 642 547 l 642 534 q 623 529 617 521 q 610 512 610 492 l 610 55 q 610 35 616 27 q 623 18 642 13 l 642 0 l 499 0 l 499 13 q 524 20 524 33 q 524 43 500 70 z"},"h":{"x_min":0,"x_max":680,"ha":680,"o":"m 520 255 l 160 255 l 160 55 q 160 35 166 27 q 172 18 191 13 l 191 0 l 59 0 l 59 13 q 77 18 83 27 q 90 35 90 55 l 90 492 q 90 512 83 521 q 77 529 59 534 l 59 547 l 191 547 l 191 534 q 172 529 166 521 q 160 512 160 492 l 160 308 l 520 308 l 520 492 q 520 512 514 521 q 507 529 489 534 l 489 547 l 621 547 l 621 534 q 603 529 596 520 q 590 512 590 492 l 590 55 q 590 35 596 27 q 603 18 621 13 l 621 0 l 489 0 l 489 13 q 507 18 514 27 q 520 35 520 55 z"},"z":{"x_min":0,"x_max":533,"ha":533,"o":"m 510 547 l 510 539 l 139 53 l 456 53 q 477 53 485 60 q 494 66 499 85 l 512 85 l 512 -31 l 499 -31 q 494 -13 485 -6 q 477 0 456 0 l 21 0 l 21 11 l 396 494 l 82 494 q 62 494 53 487 q 45 481 40 462 l 27 462 l 27 578 l 40 578 q 45 560 53 553 q 62 547 82 547 z"},"B":{"x_min":0,"x_max":778,"ha":778,"o":"m 608 346 q 725 307 725 185 q 725 126 693 81 q 663 37 610 18 q 558 0 461 0 l 73 0 l 73 16 q 92 21 98 29 q 104 37 104 58 l 104 609 q 104 629 98 638 q 92 646 73 651 l 73 667 l 471 667 q 529 667 568 657 q 606 648 635 626 q 703 578 703 488 q 703 392 608 346 z m 181 379 l 438 379 q 493 379 520 382 q 547 386 570 395 q 598 407 614 431 q 629 456 629 488 q 629 531 602 561 q 579 585 543 594 q 507 603 433 603 l 181 603 z m 181 63 l 449 63 q 506 63 534 67 q 562 71 586 82 q 615 95 632 123 q 648 150 648 186 q 648 234 619 268 q 595 295 558 305 q 521 315 444 315 l 181 315 z"},"K":{"x_min":0,"x_max":746,"ha":746,"o":"m 181 256 l 181 58 q 181 38 188 29 q 194 21 212 16 l 212 0 l 73 0 l 73 16 q 92 21 98 29 q 104 37 104 58 l 104 609 q 104 629 98 638 q 92 646 73 651 l 73 667 l 212 667 l 212 651 q 194 646 188 638 q 181 629 181 609 l 181 332 l 541 613 q 560 628 560 637 q 560 648 541 651 l 541 667 l 717 667 l 717 651 q 688 649 660 627 l 389 417 l 687 40 q 698 26 707 21 q 716 17 735 16 l 735 0 l 573 0 l 573 16 q 594 21 594 30 q 594 36 572 63 l 332 372 z"},"R":{"x_min":0,"x_max":769,"ha":769,"o":"m 181 300 l 181 58 q 181 38 188 29 q 194 21 212 16 l 212 0 l 73 0 l 73 16 q 92 21 98 29 q 104 37 104 58 l 104 609 q 104 629 98 638 q 92 646 73 651 l 73 667 l 439 667 q 514 667 558 658 q 602 650 634 630 q 667 610 688 574 q 711 534 711 483 q 711 407 660 359 q 610 311 521 304 l 691 40 q 706 16 735 16 l 735 0 l 581 0 l 581 16 q 604 20 604 29 q 604 34 587 61 l 436 300 z m 181 363 l 451 363 q 506 363 534 368 q 562 373 584 385 q 634 414 634 483 q 634 552 583 582 q 560 594 531 599 q 503 603 444 603 l 181 603 z"},"T":{"x_min":0,"x_max":663,"ha":663,"o":"m 370 603 l 370 58 q 370 38 376 29 q 382 21 401 16 l 401 0 l 262 0 l 262 16 q 280 21 287 29 q 293 37 293 58 l 293 603 l 67 603 q 47 603 38 597 q 30 591 25 572 l 10 572 l 10 698 l 25 698 q 30 679 38 673 q 47 667 67 667 l 595 667 q 616 667 624 673 q 633 679 637 698 l 653 698 l 653 572 l 637 572 q 633 591 624 597 q 616 603 595 603 z"},"P":{"x_min":0,"x_max":722,"ha":722,"o":"m 181 300 l 181 51 q 181 36 188 28 q 195 21 212 16 l 212 0 l 73 0 l 73 16 q 91 21 98 28 q 104 36 104 51 l 104 616 q 104 630 98 638 q 91 646 73 651 l 73 667 l 424 667 q 498 667 539 659 q 580 651 612 630 q 646 610 666 574 q 689 534 689 484 q 689 416 647 367 q 615 330 565 315 q 516 300 424 300 z m 181 363 l 431 363 q 487 363 514 368 q 541 372 562 385 q 612 414 612 483 q 612 552 562 582 q 541 594 514 599 q 487 603 431 603 l 181 603 z"},"|":{"x_min":0,"x_max":500,"ha":500,"o":"m 212 667 l 288 667 l 288 -167 l 212 -167 z"},"t":{"x_min":0,"x_max":553,"ha":553,"o":"m 311 491 l 311 55 q 311 35 317 27 q 323 18 342 13 l 342 0 l 210 0 l 210 13 q 229 18 235 27 q 241 35 241 55 l 241 491 l 63 491 q 42 491 34 484 q 26 478 21 459 l 8 459 l 8 575 l 21 575 q 26 557 34 550 q 42 544 63 544 l 489 544 q 510 544 518 550 q 526 557 531 575 l 544 575 l 544 459 l 531 459 q 526 478 518 484 q 509 491 489 491 z"},"M":{"x_min":0,"x_max":918,"ha":918,"o":"m 454 0 l 174 560 l 174 58 q 174 38 181 29 q 187 21 206 16 l 206 0 l 73 0 l 73 16 q 92 21 98 29 q 104 37 104 58 l 104 609 q 104 629 98 638 q 92 646 73 651 l 73 667 l 246 667 l 246 651 q 222 643 222 630 q 222 625 238 593 l 460 153 l 683 597 q 694 620 694 630 q 694 643 670 651 l 670 667 l 845 667 l 845 651 q 826 646 820 638 q 813 629 813 609 l 813 58 q 813 38 820 29 q 826 21 845 16 l 845 0 l 706 0 l 706 16 q 725 21 731 29 q 737 37 737 58 l 737 560 z"},"g":{"x_min":0,"x_max":700,"ha":700,"o":"m 646 496 l 579 388 l 568 395 q 573 412 573 418 q 573 431 526 458 q 451 500 367 500 q 263 500 195 440 q 119 375 119 270 q 119 171 188 108 q 257 45 370 45 q 427 45 478 62 q 529 79 565 108 l 565 209 l 442 209 q 421 209 413 203 q 404 196 400 178 l 387 178 l 387 294 l 400 294 q 404 275 413 269 q 421 262 442 262 l 658 262 l 658 249 q 639 245 632 236 q 626 228 626 207 l 626 150 q 626 130 632 121 q 639 113 658 108 l 658 97 q 531 -12 362 -12 q 229 -12 145 60 q 99 98 73 152 q 45 210 45 272 q 45 364 101 438 q 151 503 233 534 q 295 557 365 557 q 426 557 476 542 q 526 527 596 490 q 607 484 612 484 q 618 484 635 503 z"},"j":{"x_min":0,"x_max":491,"ha":491,"o":"m 2 18 l 57 133 l 70 128 q 66 112 66 105 q 66 97 75 90 q 100 70 141 58 q 183 45 223 45 q 260 45 288 58 q 316 71 328 94 q 341 118 341 186 l 341 492 q 341 512 335 521 q 329 529 310 534 l 310 547 l 442 547 l 442 534 q 424 529 417 521 q 411 512 411 492 l 411 172 q 411 126 404 97 q 396 68 379 47 q 356 20 316 4 q 276 -12 230 -12 q 190 -12 139 -1 q 88 10 50 26 q 42 30 37 30 q 25 30 15 12 z"},"i":{"x_min":0,"x_max":250,"ha":250,"o":"m 90 55 l 90 492 q 90 512 83 521 q 77 529 59 534 l 59 547 l 191 547 l 191 534 q 172 529 166 521 q 160 512 160 492 l 160 55 q 160 35 166 27 q 172 18 191 13 l 191 0 l 59 0 l 59 13 q 77 18 83 27 q 90 35 90 55 z"},"y":{"x_min":0,"x_max":544,"ha":544,"o":"m 312 241 l 312 55 q 312 35 319 27 q 325 18 344 13 l 344 0 l 211 0 l 211 13 q 230 18 236 27 q 243 35 243 55 l 243 241 l 74 461 q 43 501 29 515 q 14 528 -6 534 l -6 547 l 148 547 l 148 534 q 127 530 127 515 q 127 501 140 484 l 284 295 l 415 484 q 428 504 428 514 q 428 531 406 534 l 406 547 l 549 547 l 549 534 q 527 526 508 509 q 490 491 458 446 z"},"@":{"x_min":0,"x_max":828,"ha":828,"o":"m 625 473 l 569 249 q 568 244 568 238 q 568 217 599 217 q 629 217 665 241 q 688 256 702 292 q 716 328 716 374 q 716 470 647 537 q 602 581 540 604 q 485 625 428 625 q 343 625 264 581 q 181 534 140 460 q 108 402 108 330 q 108 207 191 125 q 234 82 289 62 q 344 42 418 42 q 459 42 506 51 q 552 60 582 74 q 594 80 594 94 q 594 97 593 102 l 603 105 l 635 -2 l 624 -5 q 612 19 598 19 q 592 19 535 3 q 480 -12 406 -12 q 253 -12 158 70 q 99 122 67 202 q 42 266 42 332 q 42 434 99 518 q 160 607 273 649 q 351 678 435 678 q 586 678 688 590 q 783 509 783 382 q 783 266 715 212 q 673 179 623 179 q 584 179 563 190 q 542 201 521 233 q 489 209 444 195 q 398 181 350 181 q 290 181 252 210 q 211 243 211 299 q 211 363 257 414 q 288 447 333 466 q 379 485 429 485 q 498 485 549 438 l 559 473 z m 421 436 q 367 436 328 405 q 280 369 278 312 q 276 275 302 253 q 327 230 369 230 q 437 230 481 264 q 525 298 525 344 q 525 388 498 412 q 472 436 421 436 z"},".":{"x_min":0,"x_max":280,"ha":280,"o":"m 140 95 q 162 95 177 79 q 193 63 193 41 q 193 20 177 4 q 161 -12 140 -12 q 118 -12 102 4 q 86 20 86 42 q 86 63 102 79 q 117 94 140 95 z"},"p":{"x_min":0,"x_max":600,"ha":600,"o":"m 160 246 l 160 51 q 160 36 166 28 q 173 21 189 16 l 189 0 l 59 0 l 59 16 q 76 21 83 28 q 90 36 90 51 l 90 500 q 90 514 83 521 q 76 528 59 532 l 59 547 l 361 547 q 422 547 453 542 q 484 536 509 521 q 539 503 556 470 q 573 437 573 396 q 573 355 556 323 q 539 290 508 272 q 483 256 452 251 q 421 246 361 246 z m 160 299 l 352 299 q 404 299 429 303 q 454 307 472 319 q 506 341 506 396 q 506 451 472 474 q 454 485 429 490 q 405 494 352 494 l 160 494 z"},"X":{"x_min":0,"x_max":687,"ha":687,"o":"m 385 356 l 604 76 q 650 18 684 16 l 684 0 l 513 0 l 513 16 q 537 20 537 32 q 537 42 510 76 l 338 296 l 168 76 q 141 41 141 33 q 141 21 164 16 l 164 0 l 3 0 l 3 16 q 23 19 42 32 q 61 46 83 76 l 295 351 l 129 563 q 83 624 71 635 q 59 647 39 651 l 39 667 l 208 667 l 208 651 q 185 644 185 629 q 185 616 205 590 l 343 411 l 481 590 q 504 620 504 634 q 504 647 481 651 l 481 667 l 640 667 l 640 651 q 620 647 599 628 q 579 609 543 563 z"},"*":{"x_min":0,"x_max":419,"ha":419,"o":"m 156 733 l 264 733 l 264 720 q 246 715 240 697 q 234 679 233 626 q 282 644 298 654 q 313 664 313 679 q 313 681 313 684 l 326 688 l 359 586 l 346 582 q 337 597 320 597 q 298 597 248 582 q 276 544 290 532 q 303 520 314 520 q 319 520 328 523 l 335 513 l 249 449 l 241 460 q 249 471 249 479 q 249 498 210 554 q 170 497 170 479 q 170 471 179 460 l 171 449 l 84 513 l 92 523 q 101 520 106 520 q 126 520 171 582 q 120 597 100 597 q 83 597 73 582 l 60 585 l 94 688 l 106 684 q 106 680 106 678 q 106 664 123 653 q 140 642 186 626 q 186 679 179 697 q 173 715 156 720 z"},"Y":{"x_min":0,"x_max":651,"ha":651,"o":"m 367 295 l 367 58 q 367 38 373 29 q 379 21 398 16 l 398 0 l 259 0 l 259 16 q 277 21 284 29 q 290 37 290 58 l 290 295 l 75 577 q 40 623 26 635 q 13 647 -7 651 l -7 667 l 162 667 l 162 651 q 139 645 139 632 q 139 616 162 584 l 331 354 l 500 592 q 521 623 521 633 q 521 646 500 651 l 500 667 l 657 667 l 657 651 q 633 646 616 629 q 581 592 571 577 z"},"c":{"x_min":0,"x_max":705,"ha":705,"o":"m 643 506 l 582 401 l 571 409 q 574 421 574 428 q 574 438 555 451 q 476 502 370 502 q 267 502 197 445 q 119 381 119 277 q 119 165 205 98 q 273 45 367 45 q 474 45 552 107 q 583 131 583 143 q 583 151 575 167 l 586 175 l 662 77 l 652 68 q 635 83 627 83 q 624 83 616 77 q 556 30 495 9 q 435 -12 360 -12 q 230 -12 146 59 q 103 94 78 142 q 45 204 45 274 q 45 409 150 491 q 238 559 370 559 q 487 559 594 501 q 604 496 608 496 q 619 496 631 513 z"},"!":{"x_min":0,"x_max":341,"ha":341,"o":"m 213 187 l 128 187 l 128 200 q 134 201 136 202 q 155 206 155 217 l 154 222 l 154 229 l 128 630 q 127 644 123 647 q 119 651 100 653 l 100 667 l 241 667 l 241 653 q 235 652 233 652 q 214 650 213 630 l 187 229 l 187 222 l 187 217 q 187 209 190 207 q 194 205 213 200 z m 170 95 q 193 95 208 79 q 224 63 224 41 q 224 20 208 4 q 192 -12 170 -12 q 148 -12 133 4 q 117 20 117 42 q 117 63 133 79 q 148 94 170 95 z"},"/":{"x_min":0,"x_max":713,"ha":713,"o":"m 201 14 l 201 0 l 47 0 l 47 14 q 81 16 126 74 l 514 592 q 541 628 541 636 q 541 649 517 653 l 517 667 l 667 667 l 667 653 q 633 651 587 593 l 204 74 q 177 38 177 30 q 177 18 201 14 z"},"[":{"x_min":0,"x_max":317,"ha":317,"o":"m 168 693 l 168 -27 l 262 -27 q 282 -27 290 -20 q 299 -14 304 5 l 317 5 l 317 -111 l 304 -111 q 299 -93 291 -86 q 282 -80 262 -80 l 67 -80 l 67 -63 q 85 -59 92 -51 q 98 -42 98 -22 l 98 689 q 98 709 92 717 q 85 726 67 730 l 67 747 l 262 747 q 282 747 290 753 q 299 759 304 778 l 317 778 l 317 662 l 304 662 q 299 680 291 687 q 282 693 262 693 z"},"6":{"x_min":0,"x_max":720,"ha":720,"o":"m 644 628 l 581 509 l 567 518 q 571 531 571 538 q 571 554 540 575 q 479 615 400 615 q 301 615 231 549 q 147 469 147 334 q 147 324 148 303 q 239 440 399 440 q 510 440 583 378 q 656 315 656 219 q 656 123 583 57 q 505 -12 383 -12 q 240 -12 155 83 q 113 129 91 195 q 71 254 71 318 q 71 418 117 505 q 164 594 248 640 q 318 678 398 678 q 444 678 478 669 q 511 661 575 632 q 600 621 608 621 q 617 621 630 636 z m 385 374 q 305 374 247 328 q 216 305 199 274 q 181 244 181 214 q 181 188 195 159 q 209 129 233 107 q 289 55 379 55 q 472 55 532 108 q 579 148 579 210 q 579 283 526 327 q 472 373 385 374 z"},"r":{"x_min":0,"x_max":639,"ha":639,"o":"m 160 248 l 160 55 q 160 35 166 27 q 172 18 191 13 l 191 0 l 59 0 l 59 13 q 78 18 84 27 q 90 35 90 55 l 90 492 q 90 512 83 521 q 77 529 59 534 l 59 547 l 383 547 q 438 547 473 539 q 508 531 534 513 q 591 473 591 396 q 591 333 551 296 q 512 260 435 252 l 572 35 q 580 23 587 19 q 594 15 612 12 l 612 0 l 477 0 l 477 13 q 496 17 496 25 q 496 31 484 49 l 358 248 z m 160 301 l 368 301 q 418 301 443 304 q 468 308 486 318 q 524 339 524 393 q 524 444 488 470 q 455 494 375 494 l 160 494 z"},"2":{"x_min":0,"x_max":720,"ha":720,"o":"m 168 460 l 68 558 l 80 568 q 99 556 108 556 q 114 556 123 565 q 229 678 384 678 q 488 678 555 625 q 625 569 625 483 q 625 398 559 342 q 513 304 408 252 q 328 212 298 194 q 268 176 238 148 q 197 110 180 63 l 594 63 q 615 63 623 70 q 632 76 636 95 l 652 95 l 652 -31 l 636 -31 q 632 -13 623 -6 q 615 0 594 0 l 136 0 q 116 0 107 -6 q 99 -13 94 -31 l 79 -31 q 79 21 94 61 q 108 101 143 144 q 180 191 233 229 q 287 266 383 311 q 440 339 467 355 q 494 372 514 394 q 548 430 548 478 q 548 531 509 566 q 458 612 375 612 q 281 612 208 550 q 166 514 166 499 q 166 487 179 471 z"},"{":{"x_min":0,"x_max":317,"ha":317,"o":"m 0 271 l 0 396 l 12 396 q 16 378 21 372 q 26 365 38 365 l 68 365 q 87 365 92 380 q 97 395 98 449 l 98 671 q 98 699 126 723 q 153 747 187 747 l 261 747 q 282 747 291 753 q 299 759 304 778 l 317 778 l 317 662 l 304 662 q 299 681 291 687 q 282 693 261 693 l 221 693 q 193 693 178 668 q 171 658 170 639 q 168 620 168 553 l 168 403 q 168 381 160 367 q 151 353 128 333 q 151 315 160 300 q 168 286 168 264 l 168 43 q 167 -21 221 -27 l 261 -27 q 282 -27 290 -21 q 299 -14 304 5 l 317 5 l 317 -111 l 304 -111 q 299 -93 290 -86 q 282 -80 261 -80 l 187 -80 q 157 -80 129 -60 q 98 -36 98 -4 l 98 218 q 97 272 92 287 q 87 302 68 302 l 38 302 q 26 302 21 295 q 16 289 12 271 z"},"9":{"x_min":0,"x_max":720,"ha":720,"o":"m 57 59 l 130 170 l 143 162 q 137 148 137 140 q 137 129 155 116 q 240 55 332 55 q 428 55 495 116 q 578 193 578 337 q 578 348 578 363 q 501 230 332 230 q 219 230 147 294 q 74 358 74 452 q 74 522 118 578 q 158 630 230 657 q 286 678 350 678 q 449 678 524 627 q 596 580 629 494 q 656 425 656 346 q 656 251 618 167 q 575 73 488 26 q 418 -12 332 -12 q 277 -12 231 2 q 184 17 122 52 q 99 65 95 65 q 84 65 70 50 z m 346 611 q 256 611 197 556 q 150 512 150 449 q 150 386 201 344 q 256 297 342 297 q 437 297 499 349 q 547 391 547 450 q 547 505 509 546 q 449 610 346 611 z"}," ":{"x_min":0,"x_max":250,"ha":250,"o":""},"I":{"x_min":0,"x_max":286,"ha":286,"o":"m 104 58 l 104 609 q 104 629 98 638 q 92 646 73 651 l 73 667 l 212 667 l 212 651 q 194 646 188 638 q 181 629 181 609 l 181 58 q 181 37 187 29 q 193 21 212 16 l 212 0 l 73 0 l 73 16 q 92 21 98 29 q 104 37 104 58 z"},"H":{"x_min":0,"x_max":819,"ha":819,"o":"m 638 311 l 181 311 l 181 58 q 181 37 187 29 q 193 21 212 16 l 212 0 l 73 0 l 73 16 q 92 21 98 29 q 104 37 104 58 l 104 609 q 104 629 98 638 q 92 646 73 651 l 73 667 l 212 667 l 212 651 q 194 646 188 638 q 181 629 181 609 l 181 375 l 638 375 l 638 609 q 638 629 631 638 q 625 646 606 651 l 606 667 l 746 667 l 746 651 q 727 646 721 638 q 714 629 714 609 l 714 58 q 714 38 721 29 q 727 21 746 16 l 746 0 l 606 0 l 606 16 q 625 21 631 29 q 638 37 638 58 z"},"4":{"x_min":0,"x_max":720,"ha":720,"o":"m 548 204 l 614 204 q 635 204 643 210 q 652 216 656 235 l 672 235 l 672 109 l 656 109 q 652 127 643 134 q 635 140 614 140 l 548 140 l 548 58 q 548 38 555 30 q 561 21 580 17 l 580 0 l 444 0 l 444 17 q 462 21 469 30 q 475 38 475 58 l 475 140 l 106 140 q 85 140 77 134 q 68 127 64 109 l 48 109 l 48 189 l 423 625 q 429 632 429 636 q 429 644 405 650 l 405 667 l 580 667 l 580 650 q 561 646 555 637 q 548 629 548 609 z m 475 204 l 475 592 l 146 204 z"},"~":{"x_min":0,"x_max":667,"ha":667,"o":"m 135 261 l 94 292 q 123 350 155 377 q 187 404 229 404 q 267 404 343 365 q 386 344 404 337 q 422 331 441 331 q 490 331 532 406 l 573 374 q 552 332 532 309 q 492 262 438 262 q 418 262 395 270 q 372 278 323 302 q 256 335 226 335 q 200 335 179 319 q 159 302 135 261 z"},"D":{"x_min":0,"x_max":823,"ha":823,"o":"m 104 51 l 104 616 q 104 630 98 638 q 91 646 73 651 l 73 667 l 425 667 q 544 667 608 633 q 688 592 730 505 q 767 430 767 333 q 767 220 717 137 q 673 64 605 32 q 537 0 425 0 l 73 0 l 73 16 q 91 21 98 28 q 104 36 104 51 z m 181 63 l 422 63 q 528 63 579 96 q 640 135 668 216 q 687 270 687 333 q 687 450 627 526 q 595 568 548 585 q 501 603 422 603 l 181 603 z"},"^":{"x_min":0,"x_max":500,"ha":500,"o":"m 103 375 l 32 375 l 207 668 l 293 668 l 468 375 l 396 375 l 249 616 z"},"0":{"x_min":0,"x_max":720,"ha":720,"o":"m 359 678 q 483 678 572 591 q 619 545 646 479 q 675 409 675 329 q 675 228 622 139 q 574 59 493 20 q 430 -12 360 -12 q 277 -12 205 31 q 128 77 85 163 q 44 243 44 333 q 44 439 98 527 q 146 607 227 647 q 288 677 359 678 z m 359 611 q 256 611 186 536 q 112 457 112 333 q 112 210 186 131 q 255 55 360 55 q 464 55 534 131 q 608 210 608 330 q 608 458 534 536 q 464 610 359 611 z"},"F":{"x_min":0,"x_max":713,"ha":713,"o":"m 181 603 l 181 375 l 470 375 q 491 375 499 382 q 508 388 512 407 l 528 407 l 528 281 l 512 281 q 508 299 499 306 q 491 312 470 312 l 181 312 l 181 58 q 181 37 187 29 q 193 21 212 16 l 212 0 l 73 0 l 73 16 q 92 21 98 29 q 104 37 104 58 l 104 609 q 104 629 98 638 q 92 646 73 651 l 73 667 l 615 667 q 636 667 644 673 q 653 679 657 698 l 673 698 l 673 572 l 657 572 q 653 591 644 597 q 636 603 615 603 z"},"`":{"x_min":0,"x_max":500,"ha":500,"o":"m 135 749 l 249 749 l 249 735 q 235 734 235 725 q 235 722 237 719 l 274 639 q 280 627 284 625 q 288 622 298 622 l 298 608 l 214 608 l 214 622 q 215 622 216 622 q 226 622 226 629 q 226 633 223 638 l 160 722 q 152 734 135 735 z"},"k":{"x_min":0,"x_max":617,"ha":617,"o":"m 160 211 l 160 55 q 160 35 166 27 q 172 18 191 13 l 191 0 l 59 0 l 59 13 q 77 18 83 27 q 90 35 90 55 l 90 492 q 90 512 83 521 q 77 529 59 534 l 59 547 l 191 547 l 191 534 q 172 529 166 521 q 160 512 160 492 l 160 276 l 421 479 q 448 500 455 507 q 461 514 461 520 q 461 530 443 534 l 443 547 l 597 547 l 597 534 q 578 530 570 526 q 563 523 547 511 l 329 340 l 571 33 q 581 21 588 17 q 595 14 608 13 l 608 0 l 463 0 l 463 13 q 484 19 484 26 q 484 32 467 55 l 277 300 z"},"u":{"x_min":0,"x_max":655,"ha":655,"o":"m 149 492 l 149 211 q 149 146 155 121 q 162 97 183 80 q 227 45 333 45 q 451 45 493 88 q 508 104 513 128 q 518 151 518 211 l 518 492 q 518 512 511 520 q 505 529 486 534 l 486 547 l 607 547 l 607 534 q 588 529 582 521 q 576 512 576 492 l 576 197 q 576 122 563 91 q 542 38 484 13 q 427 -12 327 -12 q 184 -12 126 42 q 98 67 89 99 q 79 130 79 197 l 79 492 q 79 512 73 521 q 66 529 48 534 l 48 547 l 180 547 l 180 534 q 162 529 155 520 q 149 512 149 492 z"},"]":{"x_min":0,"x_max":317,"ha":317,"o":"m 149 693 l 55 693 q 35 693 26 687 q 18 680 13 662 l 0 662 l 0 778 l 13 778 q 18 759 27 753 q 35 747 55 747 l 250 747 l 250 730 q 231 726 225 717 q 219 709 219 689 l 219 -22 q 219 -42 225 -51 q 231 -59 250 -63 l 250 -80 l 55 -80 q 35 -80 26 -86 q 18 -93 13 -111 l 0 -111 l 0 5 l 13 5 q 18 -14 27 -20 q 35 -27 55 -27 l 149 -27 z"},"U":{"x_min":0,"x_max":790,"ha":790,"o":"m 168 609 l 168 240 q 168 175 175 148 q 182 122 203 102 q 255 55 398 55 q 553 55 602 110 q 618 129 623 155 q 628 180 628 240 l 628 609 q 628 629 622 637 q 616 646 597 651 l 597 667 l 729 667 l 729 651 q 711 646 705 638 q 698 629 698 609 l 698 225 q 698 154 685 117 q 659 51 589 20 q 519 -12 395 -12 q 209 -12 141 60 q 113 89 102 126 q 91 163 91 225 l 91 609 q 91 629 85 638 q 79 646 60 651 l 60 667 l 199 667 l 199 651 q 181 646 174 637 q 168 629 168 609 z"},"o":{"x_min":0,"x_max":750,"ha":750,"o":"m 374 559 q 520 559 609 482 q 705 402 705 270 q 705 187 658 118 q 569 -12 375 -12 q 230 -12 141 64 q 45 146 45 273 q 45 360 92 429 q 141 501 230 535 q 291 558 374 559 z m 374 502 q 255 502 182 429 q 119 365 119 273 q 119 182 182 118 q 255 45 375 45 q 495 45 568 118 q 631 182 631 271 q 631 367 568 429 q 495 501 374 502 z"},"N":{"x_min":0,"x_max":841,"ha":841,"o":"m 174 582 l 174 58 q 174 38 181 29 q 187 21 206 16 l 206 0 l 73 0 l 73 16 q 92 21 98 29 q 104 37 104 58 l 104 609 q 104 629 98 638 q 92 646 73 651 l 73 667 l 265 667 l 265 651 q 242 643 242 629 q 242 619 265 592 l 666 123 l 666 609 q 666 629 660 638 q 653 646 635 651 l 635 667 l 767 667 l 767 651 q 749 646 742 638 q 736 629 736 609 l 736 58 q 736 37 742 29 q 749 21 767 16 l 767 0 l 613 0 l 613 16 q 636 21 636 36 q 636 46 615 71 z"},"+":{"x_min":0,"x_max":767,"ha":767,"o":"m 116 271 l 116 396 l 133 396 q 144 378 159 372 q 175 365 207 365 l 352 365 l 352 509 q 352 541 345 557 q 338 573 320 583 l 320 601 l 446 601 l 446 583 q 429 572 422 557 q 416 541 416 509 l 416 365 l 559 365 q 591 365 607 372 q 624 379 633 396 l 651 396 l 651 271 l 633 271 q 623 289 607 295 q 591 302 560 302 l 416 302 l 416 156 q 416 125 422 109 q 429 94 446 83 l 446 66 l 320 66 l 320 83 q 338 94 345 110 q 352 125 352 157 l 352 302 l 206 302 q 175 302 159 295 q 144 289 132 271 z"},"G":{"x_min":0,"x_max":840,"ha":840,"o":"m 776 603 l 702 483 l 689 492 q 698 507 698 514 q 698 529 646 557 q 545 612 439 612 q 317 612 233 543 q 137 465 137 332 q 137 203 229 126 q 313 55 444 55 q 514 55 576 77 q 639 99 682 138 l 682 261 l 524 261 q 504 261 495 254 q 487 248 482 229 l 467 229 l 467 355 l 482 355 q 487 337 495 331 q 504 324 524 324 l 787 324 l 787 309 q 768 304 762 295 q 755 287 755 267 l 755 180 q 755 160 762 151 q 768 143 787 138 l 787 125 q 731 75 683 48 q 577 -12 441 -12 q 274 -12 171 79 q 120 123 90 185 q 57 256 57 334 q 57 447 123 535 q 184 615 287 652 q 359 678 443 678 q 516 678 579 661 q 641 643 713 603 q 734 591 739 591 q 747 591 763 611 z"},"q":{"x_min":0,"x_max":750,"ha":750,"o":"m 520 12 q 452 -12 374 -12 q 230 -12 141 64 q 45 146 45 273 q 45 401 141 482 q 230 559 375 559 q 520 559 609 482 q 705 401 705 273 q 705 125 577 41 l 627 2 q 639 -6 648 -6 q 655 -6 668 9 l 679 2 l 605 -94 l 595 -86 q 602 -69 602 -63 q 602 -53 587 -41 z m 463 57 q 429 82 411 90 q 394 99 376 99 q 360 99 342 86 l 334 97 q 373 123 413 123 q 440 123 463 114 q 486 105 522 82 q 631 152 631 273 q 631 365 568 429 q 495 502 375 502 q 255 502 182 429 q 119 365 119 273 q 119 182 182 118 q 255 45 375 45 q 416 45 463 57 z"},"d":{"x_min":0,"x_max":684,"ha":684,"o":"m 90 55 l 90 492 q 90 512 84 520 q 78 529 59 534 l 59 547 l 335 547 q 446 547 500 521 q 567 488 605 413 q 639 347 639 273 q 639 187 595 115 q 557 52 498 26 q 440 0 335 0 l 59 0 l 59 13 q 78 18 84 27 q 90 35 90 55 z m 160 53 l 331 53 q 428 53 473 80 q 523 108 547 170 q 565 217 565 273 q 565 374 514 434 q 486 466 444 480 q 402 494 331 494 l 160 494 z"},"1":{"x_min":0,"x_max":720,"ha":720,"o":"m 347 546 q 306 521 275 517 q 261 515 258 511 q 254 507 251 491 l 235 491 l 235 616 l 251 616 q 254 594 256 590 q 259 586 269 586 q 292 586 320 604 q 348 621 348 635 q 348 645 321 650 l 321 667 l 451 667 l 451 650 q 433 646 426 637 q 420 629 420 609 l 420 58 q 420 38 426 30 q 433 21 451 17 l 451 0 l 315 0 l 315 17 q 334 21 340 29 q 347 38 347 58 z"},"5":{"x_min":0,"x_max":720,"ha":720,"o":"m 184 603 l 184 396 q 272 458 390 458 q 510 458 585 399 q 666 336 666 231 q 666 126 579 55 q 499 -12 376 -12 q 301 -12 241 9 q 181 29 113 79 q 102 86 96 86 q 88 86 74 76 l 61 84 l 142 190 l 154 181 q 146 166 146 157 q 146 144 188 113 q 269 55 376 55 q 488 55 547 119 q 589 164 589 230 q 589 299 540 344 q 482 398 388 398 q 300 398 235 356 q 200 334 200 322 q 200 312 209 301 l 200 289 l 68 391 l 79 402 l 83 402 q 101 402 106 410 q 111 419 111 449 l 111 609 q 111 629 104 638 q 98 646 80 651 l 80 667 l 566 667 q 587 667 595 673 q 604 679 608 698 l 624 698 l 624 572 l 608 572 q 604 590 595 597 q 587 603 566 603 z"}}}
